<?xml version="1.0" encoding="UTF-8" standalone="no"?>
<!-- Created with Inkscape (http://www.inkscape.org/) -->

<svg
   width="160.16972"
   height="23.070017"
   viewBox="0 0 42.378238 6.1039419"
   version="1.1"
   id="svg1"
   inkscape:version="1.4.2 (ebf0e94, 2025-05-08)"
   sodipodi:docname="logo.svg"
   xmlns:inkscape="http://www.inkscape.org/namespaces/inkscape"
   xmlns:sodipodi="http://sodipodi.sourceforge.net/DTD/sodipodi-0.dtd"
   xmlns="http://www.w3.org/2000/svg"
   xmlns:svg="http://www.w3.org/2000/svg">
  <sodipodi:namedview
     id="namedview1"
     pagecolor="#0f0f0f"
     bordercolor="#000000"
     borderopacity="0.25"
     inkscape:showpageshadow="2"
     inkscape:pageopacity="0.0"
     inkscape:pagecheckerboard="0"
     inkscape:deskcolor="#d1d1d1"
     inkscape:document-units="px"
     showborder="false"
     inkscape:zoom="1"
     inkscape:cx="-148.5"
     inkscape:cy="244"
     inkscape:window-width="2560"
     inkscape:window-height="1403"
     inkscape:window-x="0"
     inkscape:window-y="0"
     inkscape:window-maximized="1"
     inkscape:current-layer="layer1" />
  <defs
     id="defs1" />
  <g
     inkscape:label="Layer 1"
     inkscape:groupmode="layer"
     id="layer1"
     transform="translate(-124.46783,-49.855685)">
    <text
       xml:space="preserve"
       style="font-style:normal;font-variant:normal;font-weight:500;font-stretch:normal;font-size:7.9375px;font-family:'Plus Jakarta Sans';-inkscape-font-specification:'Plus Jakarta Sans, Medium';font-variant-ligatures:normal;font-variant-caps:normal;font-variant-numeric:normal;font-variant-east-asian:normal;text-align:start;letter-spacing:0.396875px;writing-mode:lr-tb;direction:ltr;text-anchor:start;display:none;fill:#e8e8e8;fill-opacity:1;stroke:none;stroke-width:0.264583"
       x="77.242355"
       y="68.299789"
       id="text1"><tspan
         sodipodi:role="line"
         id="tspan1"
         style="font-style:normal;font-variant:normal;font-weight:500;font-stretch:normal;font-size:7.9375px;font-family:'Plus Jakarta Sans';-inkscape-font-specification:'Plus Jakarta Sans, Medium';font-variant-ligatures:normal;font-variant-caps:normal;font-variant-numeric:normal;font-variant-east-asian:normal;letter-spacing:0.396875px;fill:#e8e8e8;fill-opacity:1;stroke:none;stroke-width:0.264583"
         x="77.242355"
         y="68.299789">MidiWatch</tspan></text>
    <path
       d="m 124.46783,55.864372 v -5.913437 h 0.71438 l 2.21456,3.151187 h -0.36512 l 2.19868,-3.151187 h 0.71438 v 5.913437 h -0.78581 v -4.929187 l 0.27781,0.08731 -2.19869,3.095625 h -0.0635 l -2.17487,-3.095625 0.24606,-0.08731 v 4.929187 z m 7.09613,0 V 51.58606 h 0.73818 v 4.278312 z m 0,-4.960937 v -0.9525 h 0.73818 v 0.9525 z m 4.22274,5.056187 q -0.60325,0 -1.08744,-0.293687 -0.47625,-0.293688 -0.75406,-0.801688 -0.27781,-0.508 -0.27781,-1.135062 0,-0.642938 0.27781,-1.143 0.27781,-0.508 0.75406,-0.801688 0.48419,-0.293687 1.08744,-0.293687 0.53181,0 0.94456,0.230187 0.41275,0.22225 0.65088,0.60325 l -0.11906,0.182563 v -2.651125 h 0.74612 v 6.008687 h -0.72231 V 54.95156 l 0.0952,0.127 q -0.22225,0.420687 -0.65088,0.650875 -0.42068,0.230187 -0.94456,0.230187 z m 0.0635,-0.714375 q 0.40481,0 0.72231,-0.198437 0.3175,-0.198438 0.50007,-0.53975 0.1905,-0.34925 0.1905,-0.777875 0,-0.436563 -0.1905,-0.777875 -0.18257,-0.34925 -0.50007,-0.547688 -0.3175,-0.198437 -0.72231,-0.198437 -0.39687,0 -0.72231,0.206375 -0.3175,0.198437 -0.50006,0.53975 -0.18257,0.333375 -0.18257,0.777875 0,0.428625 0.18257,0.777875 0.18256,0.341312 0.50006,0.53975 0.3175,0.198437 0.72231,0.198437 z m 3.69887,0.619125 V 51.58606 h 0.73818 v 4.278312 z m 0,-4.960937 v -0.9525 h 0.73818 v 0.9525 z m 3.4528,4.960937 -1.65893,-5.913437 h 0.81756 l 1.38906,5.207 h -0.1905 l 1.44463,-5.207 h 0.81756 l 1.43669,5.207 h -0.19844 l 1.397,-5.207 h 0.81756 l -1.65894,5.913437 h -0.86518 l -1.44463,-5.183187 h 0.20638 l -1.44463,5.183187 z m 8.06449,0.09525 q -0.42069,0 -0.74613,-0.150812 -0.3175,-0.15875 -0.50006,-0.428625 -0.18256,-0.277813 -0.18256,-0.635 0,-0.341313 0.14287,-0.611188 0.15081,-0.277812 0.46038,-0.468312 0.3175,-0.1905 0.79375,-0.269875 l 1.5875,-0.261938 v 0.619125 l -1.42082,0.238125 q -0.41275,0.07144 -0.60325,0.261938 -0.18256,0.1905 -0.18256,0.468312 0,0.261938 0.20638,0.436563 0.21431,0.174625 0.53181,0.174625 0.40481,0 0.6985,-0.166688 0.30162,-0.174625 0.46831,-0.468312 0.17463,-0.293688 0.17463,-0.650875 v -1.087438 q 0,-0.34925 -0.26194,-0.563562 -0.254,-0.22225 -0.67469,-0.22225 -0.36512,0 -0.65087,0.1905 -0.27782,0.182562 -0.41275,0.492125 l -0.64294,-0.333375 q 0.11906,-0.293688 0.381,-0.523875 0.26194,-0.238125 0.61119,-0.373063 0.34925,-0.134937 0.73025,-0.134937 0.49212,0 0.86518,0.1905 0.37307,0.182562 0.57944,0.515937 0.21431,0.325438 0.21431,0.762 v 2.905125 h -0.72231 v -0.809625 l 0.13494,0.04763 q -0.13494,0.254 -0.36513,0.4445 -0.23018,0.1905 -0.53975,0.301625 -0.30956,0.111125 -0.67468,0.111125 z m 5.36573,-0.04763 q -0.62706,0 -0.96837,-0.357187 -0.33338,-0.357188 -0.33338,-1.008063 v -2.25425 h -0.77787 V 51.58606 h 0.15875 q 0.28575,0 0.45244,-0.174625 0.16668,-0.174625 0.16668,-0.460375 v -0.34925 h 0.73819 v 0.98425 h 0.96044 v 0.706437 h -0.96044 v 2.230438 q 0,0.214312 0.0635,0.373062 0.0714,0.15875 0.23019,0.254 0.15875,0.08731 0.42069,0.08731 0.0556,0 0.13493,-0.0079 0.0873,-0.0079 0.15875,-0.01588 v 0.650875 q -0.10318,0.02381 -0.23018,0.03175 -0.127,0.01588 -0.21432,0.01588 z m 3.66712,0.04763 q -0.62707,0 -1.11919,-0.293687 -0.48419,-0.293688 -0.762,-0.801688 -0.27781,-0.508 -0.27781,-1.143 0,-0.642937 0.27781,-1.143 0.27781,-0.500062 0.762,-0.79375 0.49212,-0.293687 1.11919,-0.293687 0.42068,0 0.78581,0.150812 0.36512,0.150813 0.64294,0.404813 0.27781,0.254 0.40481,0.595312 l -0.65881,0.3175 q -0.15082,-0.333375 -0.46038,-0.53975 -0.30956,-0.214312 -0.71437,-0.214312 -0.38894,0 -0.70644,0.198437 -0.30956,0.198438 -0.49213,0.53975 -0.18256,0.341313 -0.18256,0.785813 0,0.428625 0.18256,0.777875 0.18257,0.341312 0.49213,0.53975 0.3175,0.198437 0.70644,0.198437 0.40481,0 0.71437,-0.206375 0.30956,-0.214312 0.46038,-0.563562 l 0.65881,0.333375 q -0.127,0.333375 -0.40481,0.595312 -0.27782,0.254 -0.64294,0.404813 -0.36513,0.150812 -0.78581,0.150812 z m 3.1988,-0.09525 v -6.008687 h 0.73819 v 2.563812 l -0.13494,-0.07144 q 0.15875,-0.404813 0.508,-0.627063 0.35719,-0.230187 0.83344,-0.230187 0.46037,0 0.81756,0.206375 0.36512,0.206375 0.5715,0.5715 0.21431,0.365125 0.21431,0.8255 v 2.770187 h -0.74612 V 53.33231 q 0,-0.357188 -0.13494,-0.60325 -0.127,-0.246063 -0.35719,-0.381 -0.23019,-0.142875 -0.53181,-0.142875 -0.29369,0 -0.53181,0.142875 -0.23813,0.134937 -0.37307,0.388937 -0.13493,0.246063 -0.13493,0.595313 v 2.532062 z"
       id="text2"
       style="font-weight:500;font-size:7.9375px;font-family:'Plus Jakarta Sans';-inkscape-font-specification:'Plus Jakarta Sans, Medium';letter-spacing:0.396875px;fill:#e8e8e8;stroke-width:0.264583"
       aria-label="MidiWatch" />
  </g>
</svg>
