<?xml version="1.0" encoding="UTF-8" standalone="no"?>
<!-- Created with Inkscape (http://www.inkscape.org/) -->

<svg
   width="256"
   height="256"
   viewBox="0 0 67.733334 67.733334"
   version="1.1"
   id="svg1"
   xml:space="preserve"
   xmlns="http://www.w3.org/2000/svg"
   xmlns:svg="http://www.w3.org/2000/svg"><defs
     id="defs1" /><rect
     style="fill:#1a1a1a;fill-opacity:1;stroke:none;stroke-width:2.74547;stroke-linecap:round;stroke-linejoin:round"
     id="rect1"
     width="67.733337"
     height="67.733337"
     x="-4.5474735e-13"
     y="5.2939559e-23"
     rx="13.546667"
     ry="13.546667" /><path
     id="path3"
     style="opacity:0.893618;fill:none;fill-opacity:1;stroke:#00d9ff;stroke-width:0.673096;stroke-linecap:round;stroke-linejoin:round;stroke-dasharray:none;stroke-opacity:1"
     d="m 13.675058,3.5115442 c -5.6862946,0 -10.1635058,4.4772099 -10.1635058,10.1635068 v 40.385718 c 0,5.686284 4.4764798,10.16102 10.1635058,10.16102 h 40.385711 c 5.687034,0 10.161021,-4.473999 10.161021,-10.16102 V 13.675051 c 0,-5.6870309 -4.474712,-10.1635055 -10.161021,-10.1635068 z" /><path
     d="m 12.957176,11.112495 h 3.133791 l 5.240541,14.431238 5.227373,-14.431238 h 3.146958 L 22.582391,30.28392 h -2.514933 z m -1.580062,0 h 3.067955 l 0.553021,13.259358 v 5.912067 h -3.620976 z m 16.827666,0 h 3.081121 V 30.28392 h -3.620976 v -5.912067 z m 11.481787,15.49778 3.818485,-15.49778 H 45.5723 l 0.131672,3.265463 -4.081828,15.905962 h -2.185753 z m -2.409595,-15.49778 3.13379,15.445111 v 3.726314 h -2.38326 L 33.68233,11.112495 Z M 49.667295,26.49177 52.748417,11.112495 h 3.60781 L 52.011055,30.28392 h -2.383261 z m -3.107456,-15.379275 3.818484,15.550449 0.223843,3.620976 h -2.185753 l -4.068661,-15.919129 0.158006,-3.252296 z"
     id="text1"
     style="font-weight:600;font-size:26.9664px;font-family:Roboto;-inkscape-font-specification:'Roboto Semi-Bold';text-align:center;letter-spacing:0px;text-anchor:middle;fill:#00d9ff;stroke-width:0.749068;stroke-linejoin:round"
     aria-label="MW" /><path
     id="path20"
     style="fill:#00d9ff;fill-opacity:1;stroke-width:0.972502;stroke-linejoin:round"
     d="m 47.888839,50.737771 -5.055971,-5.056093 c -0.559279,-0.560209 -1.236301,-0.785625 -1.516715,-0.505521 -0.278863,0.280105 -0.06197,0.956661 0.506605,1.51687 l 5.056126,5.056064 c 0.559278,0.560208 1.2363,0.785778 1.516714,0.50552 0.280414,-0.280105 0.06197,-0.956662 -0.505055,-1.51687 z m -5.055971,-4.044869 a 2.8601441,2.8601441 0 0 0 0,4.044859 2.8601441,2.8601441 0 0 0 4.044777,0 2.8601441,2.8601441 0 0 0 0,-4.044859 2.8601441,2.8601441 0 0 0 -4.044777,0 z m 4.943185,-9.260599 h 7.150246 c 0.791666,0 1.429956,0.318835 1.429956,0.714978 0,0.396142 -0.636742,0.714977 -1.429956,0.714977 h -7.150246 c -0.791666,0 -1.429956,-0.318835 -1.429956,-0.714977 0,-0.396143 0.638291,-0.714978 1.429956,-0.714978 z m 6.435267,0.714978 a 2.8601441,2.8601441 0 0 1 -2.860221,2.860145 2.8601441,2.8601441 0 0 1 -2.860067,-2.860145 2.8601441,2.8601441 0 0 1 2.860067,-2.860144 2.8601441,2.8601441 0 0 1 2.860221,2.860144 z M 33.119701,56.524135 v -7.1504 c 0,-0.792284 0.319145,-1.430109 0.714204,-1.430109 0.396607,0 0.715752,0.637825 0.715752,1.430109 v 7.15037 c 0,0.792286 -0.319145,1.430111 -0.715752,1.430111 -0.395059,0 -0.714204,-0.637825 -0.714204,-1.430111 z m 0.714204,-6.435345 a 2.8601441,2.8601441 0 0 1 2.860221,2.860145 2.8601441,2.8601441 0 0 1 -2.860066,2.860134 2.8601441,2.8601441 0 0 1 -2.860222,-2.860134 2.8601441,2.8601441 0 0 1 2.860067,-2.860145 z m -13.989401,0.648981 5.056125,-5.056079 c 0.559279,-0.560207 1.2363,-0.785778 1.516714,-0.505674 0.278865,0.280105 0.06197,0.956661 -0.506604,1.516868 l -5.05597,5.056079 c -0.559279,0.560208 -1.236302,0.785778 -1.516716,0.505519 -0.278863,-0.280104 -0.04647,-0.95666 0.506604,-1.516868 z m 5.056125,-4.044853 a 2.8601441,2.8601441 0 0 1 0,4.044843 2.8601441,2.8601441 0 0 1 -4.044932,0 2.8601441,2.8601441 0 0 1 0,-4.044859 2.8601441,2.8601441 0 0 1 4.044932,1.6e-5 z M 12.807043,37.432319 h 7.1504 c 0.791665,0 1.429956,0.318835 1.429956,0.714977 0,0.396143 -0.63674,0.714978 -1.429956,0.714978 h -7.1504 c -0.791666,0 -1.429956,-0.318835 -1.429956,-0.714978 0,-0.396142 0.636741,-0.714977 1.429956,-0.714977 z m 6.435422,0.714977 a 2.8601441,2.8601441 0 0 1 -2.860222,2.860144 2.8601441,2.8601441 0 0 1 -2.860067,-2.860144 2.8601441,2.8601441 0 0 1 2.860067,-2.860143 2.8601441,2.8601441 0 0 1 2.860222,2.860143 z m 6.495843,10.567979 a 2.8601441,2.8601441 0 0 1 -2.860068,2.860145 2.8601441,2.8601441 0 0 1 -2.860221,-2.860145 2.8601441,2.8601441 0 0 1 2.860221,-2.860144 2.8601441,2.8601441 0 0 1 2.860068,2.860144 z" /></svg>
